<svg width="32" height="30" viewBox="0 0 32 30" fill="none" xmlns="http://www.w3.org/2000/svg">
<path d="M2.67334 11.875V5C2.67334 4.66848 2.81382 4.35054 3.06386 4.11612C3.31391 3.8817 3.65305 3.75 4.00667 3.75H28.0067C28.3603 3.75 28.6994 3.8817 28.9495 4.11612C29.1995 4.35054 29.34 4.66848 29.34 5V11.875C28.456 11.875 27.6081 12.2042 26.983 12.7903C26.3579 13.3763 26.0067 14.1712 26.0067 15C26.0067 15.8288 26.3579 16.6237 26.983 17.2097C27.6081 17.7958 28.456 18.125 29.34 18.125V25C29.34 25.3315 29.1995 25.6495 28.9495 25.8839C28.6994 26.1183 28.3603 26.25 28.0067 26.25H4.00667C3.65305 26.25 3.31391 26.1183 3.06386 25.8839C2.81382 25.6495 2.67334 25.3315 2.67334 25V18.125C3.55739 18.125 4.40524 17.7958 5.03036 17.2097C5.65548 16.6237 6.00667 15.8288 6.00667 15C6.00667 14.1712 5.65548 13.3763 5.03036 12.7903C4.40524 12.2042 3.55739 11.875 2.67334 11.875ZM18.6733 6.25H5.34001V9.96C6.34162 10.4254 7.18464 11.1438 7.77401 12.0343C8.36339 12.9248 8.67568 13.952 8.67568 15C8.67568 16.048 8.36339 17.0752 7.77401 17.9657C7.18464 18.8562 6.34162 19.5746 5.34001 20.04V23.75H18.6733V6.25ZM21.34 6.25V23.75H26.6733V20.04C25.6717 19.5746 24.8287 18.8562 24.2393 17.9657C23.65 17.0752 23.3377 16.048 23.3377 15C23.3377 13.952 23.65 12.9248 24.2393 12.0343C24.8287 11.1438 25.6717 10.4254 26.6733 9.96V6.25H21.34Z" fill="black"/>
</svg>
