<svg width="30" height="30" viewBox="0 0 30 30" fill="none" xmlns="http://www.w3.org/2000/svg">
<g clip-path="url(#clip0_123_40)">
<path d="M5.49523 30H21.4893C23.5293 29.9982 25.4006 28.8675 26.3511 27.0623C27.3015 25.2574 27.1747 23.0745 26.0218 21.3915L23.3988 17.4579C24.3263 17.2644 24.9909 16.4474 24.9923 15.5001V14.4999C24.9923 13.3955 24.0969 12.4999 22.9923 12.4999H11.9923C11.9923 10.567 10.4254 9.00012 8.49218 9.00012C6.55929 9.00012 4.99237 10.567 4.99237 12.4999H3.99241C2.9812 12.5031 2.13224 13.2616 2.01575 14.2659C2.00983 14.2886 2.00521 14.3118 2.00228 14.3351V14.3449C2.00228 14.352 2.00567 14.3575 2.00567 14.3644C2.00274 14.41 1.9922 14.4534 1.9922 14.4999V15.5001C1.99355 16.4474 2.65841 17.2644 3.58589 17.4579L0.964288 21.3885C-0.190185 23.0713 -0.318154 25.2551 0.632178 27.0609C1.58251 28.867 3.45452 29.9984 5.49523 30ZM8.49218 10.0001C9.87235 10.0017 10.9907 11.12 10.9923 12.4999H7.99232C7.99232 12.2239 8.21614 12.0001 8.49218 12.0001C8.5583 12.0008 8.6239 11.9884 8.68519 11.9636C8.74648 11.9388 8.80225 11.902 8.84925 11.8555C8.89626 11.809 8.93358 11.7537 8.95905 11.6927C8.98452 11.6316 8.99763 11.5662 8.99763 11.5C8.99763 11.4339 8.98452 11.3685 8.95905 11.3074C8.93358 11.2464 8.89626 11.1911 8.84925 11.1446C8.80225 11.0981 8.74648 11.0613 8.68519 11.0365C8.6239 11.0117 8.5583 10.9993 8.49218 11C7.6639 11 6.99235 11.6716 6.99235 12.4999H5.99233C5.99398 11.12 7.1123 10.0017 8.49218 10.0001ZM2.99239 15.5001V14.4999C2.99239 13.9476 3.44005 13.4999 3.99241 13.4999H22.9923C23.5446 13.4999 23.9923 13.9476 23.9923 14.4999V15.5001C23.9923 16.0524 23.5446 16.5001 22.9923 16.5001V15.5001C22.9923 14.9478 22.5447 14.4999 21.9924 14.4999H4.99232C4.44001 14.4999 3.99235 14.9478 3.99235 15.5001V16.5001C3.44005 16.5001 2.99239 16.0524 2.99239 15.5001ZM1.79239 21.95L4.90724 17.279C4.91685 17.2614 4.92528 17.243 4.93284 17.2245C4.94157 17.2083 4.94954 17.1915 4.95622 17.1746C4.97884 17.119 4.99103 17.0599 4.99237 17V15.5001H21.9924V17C21.9933 17.0595 22.0051 17.1182 22.0273 17.1734C22.034 17.1906 22.042 17.2073 22.0507 17.2236C22.0583 17.2421 22.0667 17.2602 22.0763 17.2781L25.1923 21.95L25.1958 21.9555C25.6589 22.631 25.9289 23.4201 25.9767 24.2378C26.0244 25.0554 25.8481 25.8706 25.4668 26.5954C25.0854 27.3202 24.5134 27.9273 23.8125 28.351C23.1116 28.7747 22.3083 28.9992 21.4893 29H5.49523C4.67563 28.9992 3.87183 28.7745 3.17059 28.3502C2.46934 27.9259 1.89727 27.3182 1.51612 26.5927C0.739522 25.1136 0.845694 23.3263 1.79239 21.95ZM8.99234 6.9999C10.9252 6.9999 12.4924 5.43299 12.4924 3.5001C12.4923 1.56686 10.9252 0 8.99234 0C7.05939 0 5.49224 1.56691 5.49224 3.50004C5.49458 5.43205 7.06032 6.99791 8.99234 6.9999ZM8.99234 0.999961C10.3729 0.999961 11.4924 2.11922 11.4924 3.50004C11.4924 4.88068 10.3729 5.99988 8.99234 5.99988C7.61175 5.99988 6.49226 4.88068 6.49226 3.50004C6.49401 2.11992 7.61239 1.0016 8.99234 0.999961Z" fill="black"/>
<path d="M17.9928 11.0001C19.9257 11.0001 21.4926 9.43291 21.4926 7.50002C21.4926 5.56713 19.9257 3.99998 17.9928 3.99998C16.0597 3.99998 14.4928 5.56713 14.4928 7.50002C14.4948 9.43203 16.0606 10.9978 17.9928 11.0001ZM17.9928 4.99994C19.3735 4.99994 20.4927 6.11943 20.4927 7.50002C20.4927 8.88061 19.3735 10.0001 17.9928 10.0001C16.612 10.0001 15.4928 8.88061 15.4928 7.50002C15.4944 6.12014 16.6127 5.00176 17.9928 4.99994ZM5.49566 28H6.49269C6.55899 28.0011 6.62484 27.9889 6.68639 27.9642C6.74794 27.9395 6.80396 27.9029 6.85121 27.8563C6.89846 27.8098 6.93598 27.7543 6.96159 27.6932C6.9872 27.632 7.00038 27.5664 7.00038 27.5001C7.00038 27.4338 6.9872 27.3681 6.96159 27.3069C6.93598 27.2458 6.89846 27.1903 6.85121 27.1438C6.80396 27.0973 6.74794 27.0606 6.68639 27.0359C6.62484 27.0112 6.55899 26.9991 6.49269 27.0001H5.49566C5.04524 26.9991 4.60346 26.8764 4.21701 26.645C3.83057 26.4136 3.51381 26.0821 3.30023 25.6855C3.08665 25.289 2.98417 24.8421 3.00363 24.3921C3.02309 23.9421 3.16376 23.5057 3.41078 23.129C3.45906 23.0557 3.48717 22.9709 3.49227 22.8832C3.49737 22.7955 3.47929 22.708 3.43984 22.6296C3.40045 22.5511 3.34108 22.4843 3.26772 22.436C3.19435 22.3877 3.10957 22.3596 3.02189 22.3545C2.9342 22.3494 2.84673 22.3675 2.76823 22.4069C2.68973 22.4463 2.62297 22.5057 2.57464 22.579C2.22838 23.1065 2.03113 23.7178 2.00378 24.3482C1.97643 24.9786 2.11998 25.6047 2.41925 26.1603C2.7186 26.7157 3.16253 27.18 3.70408 27.5039C4.24563 27.8277 4.86465 27.9992 5.49566 28.0001V28ZM8.49261 28H8.99277C9.26875 28 9.49257 27.7762 9.49257 27.4999C9.49257 27.224 9.26875 27.0001 8.99277 27.0001H8.49261C8.36006 27.0001 8.23294 27.0528 8.13921 27.1465C8.04548 27.2403 7.99282 27.3674 7.99281 27.4999C7.99278 27.6325 8.04542 27.7597 8.13915 27.8535C8.23288 27.9473 8.36002 28 8.49261 28ZM4.2288 21.5001C4.31116 21.5002 4.39227 21.4799 4.4649 21.4411C4.53753 21.4023 4.59944 21.3461 4.64511 21.2776L4.97886 20.7775C5.02759 20.7045 5.05622 20.6199 5.06189 20.5323C5.06756 20.4447 5.05006 20.3571 5.01115 20.2784C4.97225 20.1997 4.9133 20.1327 4.84025 20.084C4.7672 20.0353 4.68262 20.0067 4.59502 20.0011C4.50743 19.9954 4.41989 20.0129 4.34119 20.0517C4.26249 20.0906 4.1954 20.1494 4.14666 20.2224L3.81314 20.7225C3.71084 20.8759 3.70123 21.0731 3.78818 21.2357C3.87513 21.3982 4.04429 21.4998 4.2288 21.5001ZM8.24271 4.80014C8.35722 4.86208 8.49138 4.87692 8.61666 4.8415C8.74194 4.80608 8.84847 4.7232 8.9136 4.61047C8.97873 4.49774 8.99732 4.36405 8.96543 4.23783C8.93353 4.1116 8.85367 4.0028 8.74281 3.93453C8.64665 3.87989 8.57132 3.79491 8.52862 3.69288C8.48592 3.59086 8.47826 3.47755 8.50683 3.37071C8.53541 3.26386 8.59861 3.16951 8.68654 3.10242C8.77448 3.03533 8.88217 2.9993 8.99277 2.99996C9.26875 2.99996 9.49257 2.77613 9.49257 2.5001C9.49261 2.36751 9.43997 2.24033 9.34624 2.14655C9.25251 2.05276 9.12536 2.00005 8.99277 2C8.3132 1.9993 7.71789 2.45545 7.54211 3.11188C7.36632 3.7683 7.65378 4.46094 8.24271 4.80014Z" fill="black"/>
<path d="M17.2425 8.80007C17.357 8.86162 17.491 8.87618 17.616 8.84067C17.7411 8.80516 17.8474 8.72236 17.9125 8.60982C17.9774 8.49721 17.996 8.36374 17.9642 8.23768C17.9325 8.11161 17.853 8.00285 17.7424 7.93441C17.6464 7.87973 17.5711 7.79473 17.5285 7.69273C17.4859 7.59072 17.4783 7.47746 17.5069 7.37068C17.5355 7.26388 17.5987 7.16958 17.6866 7.10249C17.7744 7.03541 17.8821 6.99933 17.9926 6.9999C18.2686 6.9999 18.4924 6.77607 18.4924 6.50003C18.4925 6.43438 18.4795 6.36936 18.4544 6.30869C18.4293 6.24802 18.3925 6.19289 18.3461 6.14644C18.2997 6.1 18.2446 6.06315 18.184 6.038C18.1233 6.01286 18.0583 5.9999 17.9926 5.99988C17.3128 5.99923 16.7177 6.45539 16.5419 7.11181C16.3661 7.76824 16.6536 8.46105 17.2425 8.80007Z" fill="black"/>
</g>
<defs>
<clipPath id="clip0_123_40">
<rect width="30" height="30" fill="white"/>
</clipPath>
</defs>
</svg>
