<svg width="36" height="36" viewBox="0 0 36 36" fill="none" xmlns="http://www.w3.org/2000/svg">
<g clip-path="url(#clip0_123_47)">
<path d="M17.7402 16L17.2202 18H18.8502L18.3202 16H17.7402Z" fill="black"/>
<path d="M11.9402 18H14.6302L15.1602 16H11.4102L11.9402 18Z" fill="black"/>
<path d="M13.2902 23.1L14.1002 20H12.4702L13.2902 23.1Z" fill="black"/>
<path d="M21.4402 18H24.1302L24.6602 16H20.9102L21.4402 18Z" fill="black"/>
<path d="M22.7802 23.1L23.6002 20H21.9702L22.7802 23.1Z" fill="black"/>
<path d="M18 2C14.8355 2 11.7421 2.93838 9.11088 4.69649C6.4797 6.45459 4.42894 8.95345 3.21793 11.8771C2.00693 14.8007 1.69008 18.0177 2.30744 21.1214C2.92481 24.2251 4.44866 27.0761 6.6863 29.3137C8.92394 31.5513 11.7749 33.0752 14.8786 33.6926C17.9823 34.3099 21.1993 33.9931 24.1229 32.7821C27.0466 31.5711 29.5454 29.5203 31.3035 26.8891C33.0616 24.2579 34 21.1645 34 18C34 13.7565 32.3143 9.68687 29.3137 6.68629C26.3131 3.68571 22.2435 2 18 2ZM29 20H26.19L24 28.32C23.9305 28.588 23.774 28.8254 23.555 28.9949C23.336 29.1644 23.0669 29.2563 22.79 29.2563C22.5131 29.2563 22.244 29.1644 22.025 28.9949C21.806 28.8254 21.6495 28.588 21.58 28.32L19.38 20H16.69L14.5 28.32C14.4305 28.588 14.274 28.8254 14.055 28.9949C13.836 29.1644 13.5669 29.2563 13.29 29.2563C13.0131 29.2563 12.744 29.1644 12.525 28.9949C12.306 28.8254 12.1495 28.588 12.08 28.32L9.88001 20H7.00001C6.73479 20 6.48044 19.8946 6.2929 19.7071C6.10536 19.5196 6.00001 19.2652 6.00001 19C6.00001 18.7348 6.10536 18.4804 6.2929 18.2929C6.48044 18.1054 6.73479 18 7.00001 18H9.35001L8.82001 16H7.00001C6.73479 16 6.48044 15.8946 6.2929 15.7071C6.10536 15.5196 6.00001 15.2652 6.00001 15C6.00001 14.7348 6.10536 14.4804 6.2929 14.2929C6.48044 14.1054 6.73479 14 7.00001 14H8.30001L7.30001 10.32C7.21514 9.99909 7.26123 9.65761 7.42813 9.37068C7.59504 9.08374 7.86909 8.87487 8.19001 8.79C8.51092 8.70513 8.8524 8.75122 9.13933 8.91813C9.42626 9.08503 9.63514 9.35909 9.72001 9.68L10.88 14H15.68L16.82 9.68C16.8895 9.41195 17.046 9.17456 17.265 9.0051C17.484 8.83564 17.7531 8.74369 18.03 8.74369C18.3069 8.74369 18.576 8.83564 18.795 9.0051C19.014 9.17456 19.1705 9.41195 19.24 9.68L20.38 14H25.18L26.32 9.68C26.4049 9.35909 26.6138 9.08503 26.9007 8.91813C27.1876 8.75122 27.5291 8.70513 27.85 8.79C28.1709 8.87487 28.445 9.08374 28.6119 9.37068C28.7788 9.65761 28.8249 9.99909 28.74 10.32L27.74 14H29C29.2652 14 29.5196 14.1054 29.7071 14.2929C29.8947 14.4804 30 14.7348 30 15C30 15.2652 29.8947 15.5196 29.7071 15.7071C29.5196 15.8946 29.2652 16 29 16H27.24L26.71 18H29C29.2652 18 29.5196 18.1054 29.7071 18.2929C29.8947 18.4804 30 18.7348 30 19C30 19.2652 29.8947 19.5196 29.7071 19.7071C29.5196 19.8946 29.2652 20 29 20Z" fill="black"/>
</g>
<defs>
<clipPath id="clip0_123_47">
<rect width="36" height="36" fill="white"/>
</clipPath>
</defs>
</svg>
